<svg xmlns="http://www.w3.org/2000/svg" xmlns:xlink="http://www.w3.org/1999/xlink" fill="none" version="1.1" width="37.625" height="21.583332061767578" viewBox="0 0 37.625 21.583332061767578"><g><path d="M17.9167,9.25L17.9167,0L8.95833,12.3333L14.3333,12.3333L14.3333,21.5833L23.2917,9.25L17.9167,9.25ZM1.79167,0L30.4583,0C31.4478,0,32.25,0.690228,32.25,1.54167L32.25,20.0417C32.25,20.8931,31.4478,21.5833,30.4583,21.5833L1.79167,21.5833C0.802157,21.5833,0,20.8931,0,20.0417L0,1.54167C0,0.690228,0.802157,0,1.79167,0ZM34.0417,6.16667L37.625,6.16667L37.625,15.4167L34.0417,15.4167L34.0417,6.16667Z" fill="#1A1A1A" fill-opacity="1"/></g></svg>