<?xml version="1.0" standalone="no"?><!DOCTYPE svg PUBLIC "-//W3C//DTD SVG 1.1//EN" "http://www.w3.org/Graphics/SVG/1.1/DTD/svg11.dtd"><svg class="icon" width="200px" height="190.16px" viewBox="0 0 1077 1024" version="1.1" xmlns="http://www.w3.org/2000/svg"><path d="M455.414838 0c149.126737 0 270.066526 120.131368 270.066526 268.234105S604.703259 536.468211 455.576522 536.468211 185.67168 416.336842 185.67168 268.234105 306.395891 0 455.414838 0z m-6.467369 793.6c-23.713684 29.696-34.492632 78.955789-34.492631 115.226947 0 24.683789 6.521263 49.044211 19.024842 70.386527H0.004312s-1.455158-152.144842 49.04421-231.693474c57.236211-90.165895 139.802947-155.216842 406.366316-155.216842 199.949474 0 294.696421 36.648421 355.705263 92.968421 20.318316 18.755368 36.109474 37.941895 48.128 60.901053-25.977263-16.006737-34.115368-24.899368-82.782316-24.899369l-215.740631 1.239579c-41.822316 0-84.614737 37.025684-111.777685 71.087158z m188.038737 229.591579l-32.175158 0.808421c-28.887579 0-61.278316-7.653053-84.075789-28.456421a123.742316 123.742316 0 0 1-15.252211-16.707368 127.838316 127.838316 0 0 1-24.360421-68.230737c-1.832421-31.420632 8.946526-70.817684 30.342737-93.669053 21.288421-22.743579 57.667368-38.426947 89.680842-39.127579l130.910316-3.072c36.971789-0.808421 66.506105 8.623158 86.878316 24.791579 25.222737 20.102737 35.516632 53.625263 37.564631 88.602947a30.181053 30.181053 0 0 1-29.642105 31.85179c-17.408 0.485053-36.540632-12.934737-37.456842-30.019369-2.155789-37.187368-38.157474-49.852632-65.589895-49.152l-119.592421 2.964211a55.888842 55.888842 0 0 0-38.912 18.378105c-9.970526 10.778947-15.090526 31.582316-14.22821 46.403369 1.724632 30.881684 28.779789 53.948632 60.038737 53.248l22.905263-0.754527a33.037474 33.037474 0 0 1 27.109052 13.473685c3.449263 4.796632 5.605053 14.605474 5.928421 20.803368 0.592842 17.246316-12.773053 27.432421-30.073263 27.863579z m411.486316-41.822316c-21.342316 22.743579-48.128 40.582737-79.979789 40.582737l-162.007579 1.940211c-43.978105 1.024-72.973474-11.533474-93.453474-42.415158-10.778947-16.222316-17.300211-40.421053-18.539789-63.056842-1.077895-17.030737 13.581474-31.474526 30.881684-31.905685 17.300211-0.538947 30.935579 13.042526 33.199158 29.965474 2.101895 15.737263 2.748632 42.576842 55.457684 42.576842l143.25221-1.778526c15.036632-0.377263 30.342737-9.162105 40.313264-19.941053 10.078316-10.725053 15.090526-27.270737 14.336-42.145684-1.616842-27.755789-19.456-55.296-52.439579-54.595368l-39.558737 1.024c-17.246316 0.431158-33.414737-13.150316-34.223158-30.288843-0.808421-17.030737 12.611368-35.354947 30.019368-35.678315l45.002106-1.024c64.026947-1.509053 117.167158 46.187789 117.059368 119.861894 1.347368 31.690105-8.084211 64.134737-29.318737 86.878316z" fill="#2c2c2c" /></svg>