<svg xmlns="http://www.w3.org/2000/svg" xmlns:xlink="http://www.w3.org/1999/xlink" fill="none" version="1.1" width="20" height="10" viewBox="0 0 20 10"><g><path d="M9.52381,4.28571L9.52381,0L4.7619,5.71429L7.61905,5.71429L7.61905,10L12.381,4.28571L9.52381,4.28571ZM0.952381,0L16.1905,0C16.7165,0,17.1429,0.319797,17.1429,0.714286L17.1429,9.28571C17.1429,9.6802,16.7165,10,16.1905,10L0.952381,10C0.426396,10,0,9.6802,0,9.28571L0,0.714286C0,0.319797,0.426396,0,0.952381,0ZM18.0952,2.85714L20,2.85714L20,7.14286L18.0952,7.14286L18.0952,2.85714Z" fill="#00A870" fill-opacity="1"/></g></svg>