<?xml version="1.0" standalone="no"?><!DOCTYPE svg PUBLIC "-//W3C//DTD SVG 1.1//EN" "http://www.w3.org/Graphics/SVG/1.1/DTD/svg11.dtd"><svg t="1664779374132" class="icon" viewBox="0 0 1024 1024" version="1.1" xmlns="http://www.w3.org/2000/svg" p-id="8213" width="200" height="200" xmlns:xlink="http://www.w3.org/1999/xlink"><path d="M409.6 0h204.8l20.48 81.92H389.12z" p-id="8214"></path><path d="M194.56 81.92h634.88a30.72 30.72 0 0 1 30.72 30.72v860.16a51.2 51.2 0 0 1-51.2 51.2H215.04a51.2 51.2 0 0 1-51.2-51.2V112.64a30.72 30.72 0 0 1 30.72-30.72z" p-id="8215"></path><path d="M573.44 307.2L348.16 552.96s-7.43424 15.36 0 20.48h81.92v215.04s12.40064 18.5344 30.72 0l215.04-235.52a39.15776 39.15776 0 0 0 0-20.48h-81.92V327.68s5.12-21.7088-20.48-20.48z" fill="#ffffff" p-id="8216" data-spm-anchor-id="a313x.7781069.0.i5" class="selected"></path></svg>