<svg xmlns="http://www.w3.org/2000/svg" xmlns:xlink="http://www.w3.org/1999/xlink" fill="none" version="1.1" width="82.25" height="70.5" viewBox="0 0 82.25 70.5"><g><path d="M70.5,31.3333L66.5833,31.3333L66.5833,15.6667L70.5,15.6667L70.5,3.91667L78.3333,3.91667L78.3333,15.6667L82.25,15.6667L82.25,31.3333L78.3333,31.3333L78.3333,58.75C78.3333,65.2393,73.0727,70.5,66.5833,70.5C60.094,70.5,54.8333,65.2393,54.8333,58.75L54.8333,43.0833L47,43.0833L47,62.6667L50.9167,62.6667L50.9167,70.5L0,70.5L0,62.6667L3.91667,62.6667L3.91667,3.91667C3.91667,1.75355,5.67022,0,7.83333,0L43.0833,0C45.2465,0,47,1.75355,47,3.91667L47,35.25L54.8333,35.25C59.1596,35.25,62.6667,38.7571,62.6667,43.0833L62.6667,58.75C62.6667,60.9131,64.4202,62.6667,66.5833,62.6667C68.7464,62.6667,70.5,60.9131,70.5,58.75L70.5,31.3333ZM27.4167,31.3333L27.4167,15.6667L11.75,39.1667L23.5,39.1667L23.5,54.8333L39.1667,31.3333L27.4167,31.3333Z" fill="#767676" fill-opacity="1"/></g></svg>