<svg xmlns="http://www.w3.org/2000/svg" xmlns:xlink="http://www.w3.org/1999/xlink" fill="none" version="1.1" width="30" height="30" viewBox="0 0 30 30"><defs><clipPath id="master_svg0_20_762"><rect x="5" y="5" width="20" height="20" rx="0"/></clipPath></defs><g style="mix-blend-mode:passthrough"><g style="mix-blend-mode:passthrough"><rect x="0" y="0" width="30" height="30" rx="0" fill="#078D5C" fill-opacity="1"/></g><g clip-path="url(#master_svg0_20_762)"><g><path d="M21.666748046875,14.16667L20.833448046875,14.16667L20.833448046875,10.83333L21.666748046875,10.83333L21.666748046875,8.333333L23.333448046875,8.333333L23.333448046875,10.83333L24.166748046875,10.83333L24.166748046875,14.16667L23.333448046875,14.16667L23.333448046875,20C23.333448046875,21.380699999999997,22.214148046875,22.5,20.833448046875,22.5C19.452748046875,22.5,18.333448046875,21.380699999999997,18.333448046875,20L18.333448046875,16.66667L16.666748046875,16.66667L16.666748046875,20.8333L17.500048046875,20.8333L17.500048046875,22.5L6.666748046875,22.5L6.666748046875,20.8333L7.500081046875,20.8333L7.500081046875,8.333333C7.500081046875,7.873096,7.873178046875,7.5,8.333418046875,7.5L15.833418046875,7.5C16.293648046875,7.5,16.666748046875,7.873096,16.666748046875,8.333333L16.666748046875,15L18.333448046875,15C19.253848046875,15,20.000048046875,15.74619,20.000048046875,16.66667L20.000048046875,20C20.000048046875,20.4602,20.373148046875002,20.8333,20.833448046875,20.8333C21.293648046875,20.8333,21.666748046875,20.4602,21.666748046875,20L21.666748046875,14.16667ZM12.500078046875,14.16667L12.500078046875,10.83333L9.166748046875,15.83333L11.666748046875,15.83333L11.666748046875,19.1667L15.000078046875,14.16667L12.500078046875,14.16667Z" fill="#FFFFFF" fill-opacity="1"/></g></g></g></svg>