<svg xmlns="http://www.w3.org/2000/svg" xmlns:xlink="http://www.w3.org/1999/xlink" fill="none" version="1.1" width="119.875" height="114.16666412353516" viewBox="0 0 119.875 114.16666412353516"><g><path d="M22.8333,0L22.8333,114.167L0,114.167L0,0L22.8333,0ZM34.25,0L91.3619,0C97.6525,0,102.75,5.12608,102.75,11.3596L102.75,102.807C102.75,109.081,97.6525,114.167,91.3619,114.167L34.25,114.167L34.25,0ZM108.458,22.8333L119.875,22.8333L119.875,45.6667L108.458,45.6667L108.458,22.8333ZM108.458,57.0833L119.875,57.0833L119.875,79.9167L108.458,79.9167L108.458,57.0833ZM68.5,57.0833C74.8053,57.0833,79.9167,51.9719,79.9167,45.6667C79.9167,39.3614,74.8053,34.25,68.5,34.25C62.1947,34.25,57.0833,39.3614,57.0833,45.6667C57.0833,51.9719,62.1947,57.0833,68.5,57.0833ZM51.375,79.9167L85.625,79.9167C85.625,70.4588,77.9579,62.7917,68.5,62.7917C59.0421,62.7917,51.375,70.4588,51.375,79.9167Z" fill="#AAAAAA" fill-opacity="1"/></g></svg>