<svg xmlns="http://www.w3.org/2000/svg" xmlns:xlink="http://www.w3.org/1999/xlink" fill="none" version="1.1" width="65.8759994506836" height="71.66666412353516" viewBox="0 0 65.8759994506836 71.66666412353516"><g><path d="M4.27133,64.5L4.27133,43C4.27133,27.1678,17.1058,14.3333,32.938,14.3333C48.7702,14.3333,61.6047,27.1678,61.6047,43L61.6047,64.5L65.188,64.5L65.188,71.6667L0.688,71.6667L0.688,64.5L4.27133,64.5ZM11.438,43L18.6047,43C18.6047,35.0839,25.0219,28.6667,32.938,28.6667L32.938,21.5C21.0639,21.5,11.438,31.1259,11.438,43ZM29.3547,0L36.5213,0L36.5213,10.75L29.3547,10.75L29.3547,0ZM60.8092,10.062L65.876,15.1288L58.2793,22.7291L53.2089,17.6623L60.8092,10.062ZM0,15.1288L5.06683,10.062L12.6671,17.6587L7.60383,22.7327L0,15.1288Z" fill="#C9353F" fill-opacity="1"/></g></svg>