<svg xmlns="http://www.w3.org/2000/svg" xmlns:xlink="http://www.w3.org/1999/xlink" fill="none" version="1.1" width="60" height="60" viewBox="0 0 60 60"><g style="mix-blend-mode:passthrough"><rect x="0" y="0" width="60" height="60" rx="0" fill="#F3F3F3" fill-opacity="1"/><g style="mix-blend-mode:passthrough"><g style="mix-blend-mode:passthrough"><path d="M29.02497,30.97497C29.02497,30.97497,29.02497,36.75,29.02497,36.75C29.02497,36.75,30.97497,36.75,30.97497,36.75C30.97497,36.75,30.97497,30.97497,30.97497,30.97497C30.97497,30.97497,36.75,30.97497,36.75,30.97497C36.75,30.97497,36.75,29.02497,36.75,29.02497C36.75,29.02497,30.97497,29.02497,30.97497,29.02497C30.97497,29.02497,30.97497,23.25,30.97497,23.25C30.97497,23.25,29.02497,23.25,29.02497,23.25C29.02497,23.25,29.02497,29.02497,29.02497,29.02497C29.02497,29.02497,23.25,29.02497,23.25,29.02497C23.25,29.02497,23.25,30.97497,23.25,30.97497C23.25,30.97497,29.02497,30.97497,29.02497,30.97497C29.02497,30.97497,29.02497,30.97497,29.02497,30.97497Z" fill="#A6A6A6" fill-opacity="1"/></g></g></g></svg>